<svg xmlns="http://www.w3.org/2000/svg" width="146" height="82" viewBox="0 0 146 82" fill="none">
<path d="M114.625 23.1263C113.414 21.1821 112.067 19.3231 110.583 17.5835L26.3321 33.9902L25.991 34.86L114.625 23.1263Z" fill="#005973"/>
<path d="M72.4654 0C62.1813 0.085274 52.6477 3.32569 44.7854 8.81734L86.0751 1.7737C82.7153 0.835686 79.202 0.255822 75.5864 0.0682195C74.529 0.0341099 73.4886 0 72.4654 0Z" fill="#005973"/>
<path d="M31.8918 22.5124L104.767 11.7167C102.533 9.80652 100.111 8.10104 97.5529 6.60022L32.25 21.6255L31.8918 22.5124Z" fill="#005973"/>
<path d="M122.095 49.169C122.095 46.8666 121.924 44.5983 121.617 42.3641L73.0963 48.2822L72.9258 49.1519H122.095V49.169Z" fill="#005973"/>
<path d="M120.082 35.2694C119.503 33.291 118.786 31.3638 117.968 29.4878L23.9274 45.9457L23.7568 46.8155L120.082 35.2694Z" fill="#005973"/>
<path d="M53.398 61.2097H46.7977C46.7977 61.2267 45.314 71.5961 45.314 71.5961C44.3589 78.3327 47.7699 81.7096 54.7623 81.6925C62.5564 81.6925 65.3193 77.6335 66.172 71.4937L67.6217 61.1926H61.2602C61.2602 61.2097 59.7594 71.9713 59.7594 71.9713C59.3501 74.9559 58.0028 76.9172 55.2399 76.9172C52.477 76.9172 51.4025 75.314 51.8971 71.8007L53.398 61.2097Z" fill="#005973"/>
<path d="M18.7086 76.0303C17.6 76.3202 15.6387 76.6443 13.4557 76.6443C9.02147 76.6443 7.11134 74.683 7.11134 71.7495C7.09428 67.4347 10.6076 65.7974 14.9224 65.7804C17.2248 65.7804 19.0497 66.3261 19.6296 66.5137L20.3118 61.7895C18.7257 61.3973 16.8667 60.9539 13.4728 60.9539C6.54853 60.9709 0.425852 64.416 0.442907 71.7666C0.442907 77.48 4.1438 81.7948 11.665 81.7778C14.4108 81.7778 17.1055 81.232 18.0264 80.8398L18.7086 76.0303Z" fill="#005973"/>
<path d="M36.6673 70.0952C36.6843 74.3419 34.723 76.9342 30.5958 76.9512H27.3724L28.9926 65.5586H32.0113C35.4052 65.5416 36.6502 67.1277 36.6673 70.0952ZM43.1311 69.7371C43.114 64.2454 39.8054 61.2438 33.8874 61.2438H23.2452C23.2452 61.2608 20.4141 81.3684 20.4141 81.3684H31.6191C39.5154 81.3343 43.1481 76.9171 43.1311 69.7371Z" fill="#005973"/>
<path d="M131.219 61.0391H124.619C124.619 61.0562 123.135 71.4084 123.135 71.4084C122.18 78.1451 125.591 81.5049 132.584 81.4878C140.361 81.4878 143.124 77.4288 143.993 71.3061L145.443 61.005H139.082C139.082 61.0221 137.581 71.7666 137.581 71.7666C137.171 74.7512 135.824 76.7125 133.061 76.7125C130.298 76.7125 129.224 75.1093 129.718 71.596L131.219 61.0391Z" fill="#005973"/>
<path d="M109.014 81.6755C115.563 81.6755 121.276 79.3219 121.276 74.6318C121.276 69.9418 118.701 70.334 115.563 69.1572L114.301 68.6797C111.845 67.7587 110.839 67.3153 110.839 66.3602C110.839 65.4052 112.05 64.8765 114.352 64.8765C116.654 64.8765 119.059 65.7122 120.85 66.4796L121.651 61.8919C120.236 61.3973 117.848 60.5787 113.84 60.5957C108.383 60.6128 103.659 62.9152 103.659 66.9231C103.659 70.9309 105.893 71.3061 108.553 72.4318L109.747 72.9264C112.442 74.052 113.636 74.3931 113.636 75.4334C113.636 76.4738 112.288 77.1559 109.321 77.1559C106.353 77.1559 104.494 76.3544 103.011 75.5869L102.311 80.5499C103.335 80.9592 105.449 81.6925 109.014 81.6755Z" fill="#005973"/>
<path d="M100.555 75.8427C99.446 76.1326 97.4847 76.4567 95.3017 76.4567C90.8674 76.4567 88.9573 74.4954 88.9573 71.562C88.9573 67.2642 92.4535 65.6098 96.7513 65.6098C101.049 65.6098 100.862 66.1556 101.458 66.3432L102.141 61.619C100.555 61.2267 98.7126 60.7833 95.3017 60.7833C88.3945 60.8004 82.2718 64.2454 82.2889 71.579C82.2889 77.2753 85.9727 81.6072 93.4939 81.5902C96.2397 81.5902 98.9343 81.0444 99.8553 80.6522L100.555 75.8427Z" fill="#005973"/>
<path d="M77.343 71.7666C77.343 73.455 75.9786 74.8194 74.3072 74.8194C72.6358 74.8194 71.2544 73.455 71.2544 71.7836C71.2544 70.1123 72.6188 68.7308 74.2901 68.7308C75.9615 68.7308 77.343 70.0782 77.343 71.7666Z" fill="#005973"/>
</svg>