<?xml version="1.0" encoding="UTF-8" standalone="no"?>
<svg
   width="1000"
   height="497.10001"
   viewBox="0 0 1000 497.10001"
   fill="none"
   version="1.1"
   id="svg43"
   sodipodi:docname="Logo Die Linke (2023).svg"
   inkscape:version="1.2.2 (732a01da63, 2022-12-09)"
   xmlns:inkscape="http://www.inkscape.org/namespaces/inkscape"
   xmlns:sodipodi="http://sodipodi.sourceforge.net/DTD/sodipodi-0.dtd"
   xmlns="http://www.w3.org/2000/svg"
   xmlns:svg="http://www.w3.org/2000/svg">
  <sodipodi:namedview
     id="namedview45"
     pagecolor="#ffffff"
     bordercolor="#000000"
     borderopacity="0.25"
     inkscape:showpageshadow="2"
     inkscape:pageopacity="0.0"
     inkscape:pagecheckerboard="0"
     inkscape:deskcolor="#d1d1d1"
     showgrid="false"
     inkscape:zoom="0.90203892"
     inkscape:cx="397.43296"
     inkscape:cy="343.11158"
     inkscape:window-width="1920"
     inkscape:window-height="1058"
     inkscape:window-x="1672"
     inkscape:window-y="-8"
     inkscape:window-maximized="1"
     inkscape:current-layer="svg43" />
  <path
     d="M 1000,320.8 0,497.1 V 176.3 L 1000,0 Z"
     fill="#ff0000"
     id="path2"
     style="stroke-width:4.7619" />
  <path
     d="m 88.1,407.24762 -0.1,-158.3981 43.9,-7.7 c 14,-2.5 26.8,-1.5 38.3,3 11.5,4.5 21,11.3 28.5,20.5 7.5,9.2 12.4,20 14.5,32.3 2.6,14.6 1.5,29.1 -3.3,43.4981 -4.8,14.3 -12.7,26.7 -23.8,37 -11.1,10.3 -24.4,16.9 -40.1,19.6 z m 54,-46.9 c 7.2,-1.3 13.4,-4.7 18.6,-10.2 5.2,-5.5 8.9,-12.2 11,-19.9981 2.1,-7.8 2.4,-15.59952 1.1,-23.39952 -1.1,-6.3 -3.3,-11.80048 -6.4,-16.60048 -3.2,-4.8 -7.4,-8.4 -12.5,-10.7 -5.2,-2.3 -10.7,-3 -16.7,-1.9 l -9,1.6 -0.2,83.7981 z"
     fill="#ffffff"
     id="path6"
     style="stroke-width:4.7619" />
  <path
     d="M 228.60048,382.45238 228.4,266.85 l 36.2,-6.4 0.2,115.60238 z M 248.4,251.35 c -5.7,1 -10.6,0 -14.7,-3 -4.1,-3 -6.6,-7 -7.5,-12.2 -0.7,-3.8 -0.39952,-7.5 0.80048,-11.2 1.2,-3.7 3.49952,-6.8 6.69952,-9.3 3.2,-2.5 6.8,-4.1 10.8,-4.8 5.3,-0.9 10.00048,0.1 14.20048,3 4.2,3 6.79952,6.9 7.59952,11.9 0.7,4 0.4,7.8 -1,11.5 -1.4,3.7 -3.7,6.8 -6.8,9.4 -3,2.5 -6.4,4 -10.1,4.7 z"
     fill="#ffffff"
     id="path8"
     style="stroke-width:4.7619" />
  <path
     d="M 433.9,346.24762 433.8,187.85 l 39.9,-7 0.2,119 62.1,-11 -0.1,39.4 z"
     fill="#ffffff"
     id="path10"
     style="stroke-width:4.7619" />
  <path
     d="m 603.5,316.35 -0.2,-115.6 26.3,-4.6 5.2,10.2 1.1,-0.2 c 2.5,-4.7 6,-8.7 10.5,-12.2 4.5,-3.4 9.9,-5.7 16,-6.8 9.1,-1.6 17.1,-0.7 24,2.7 6.9,3.4 12.2,8.7 15.9,15.9 3.7,7.2 5.6,15.7 5.6,25.5 v 66.8 l -37.1,6.5 -0.1,-63.6 c -0.2,-3.6 -0.9,-6.9 -2.1,-9.8 -1.2,-3 -3.1,-5.1 -5.8,-6.4 -2.6,-1.3 -5.7,-1.7 -9.2,-1.1 -2.6,0.5 -5.1,1.5 -7.5,3.2 -2.3,1.7 -4,4.1 -5.1,7.1 -1,3.1 -1.6,6.3 -1.6,9.8 l 0.1,66.3 z"
     fill="#ffffff"
     id="path12"
     style="stroke-width:4.7619" />
  <path
     d="m 828.2,276.85 -34.9,-52.9 32.3,-62.3 -41,7.2 -25.1,49.9 0.1,-88.3 -36.2,6.4 -0.1,158.4 36.2,-6.4 v -50.4 l 28.2,45.4 z"
     fill="#ffffff"
     id="path14"
     style="stroke-width:4.7619" />
  <path
     d="m 550.5,325.75 -0.2,-115.6 36.2,-6.4 0.2,115.6 z"
     fill="#ffffff"
     id="path16"
     style="stroke-width:4.7619" />
  <path
     d="m 521.5,169.25 44.4,24 52.1,-80.4 z"
     fill="#ffffff"
     id="path18"
     style="stroke-width:4.7619" />
  <path
     d="m 350.3,324.85 c -1.4,2.4 -3.4,4.6 -5.9,6.8 -2.6,2.19762 -5.8,3.59762 -9.8,4.29762 -3.7,0.6 -7.2,0.3 -10.5,-1 -3.3,-1.3 -6,-3.49762 -8,-6.69762 -1.3,-2.1 -2.4,-4.6 -3.2,-7.5 l 73.9,-13 c 0.4,-2.9 0.6,-6.2 0.7,-9.7 0.1,-3.6 -0.2,-7 -0.8,-10.4 -1.7,-9.8 -5.5,-18.2 -11.3,-25 -5.8,-6.9 -12.8,-11.8 -20.9,-14.6 -8.1,-2.9 -16.7,-3.5 -25.8,-1.9 -11.4,2 -21.3,7 -29.7,14.9 -8.4,7.9 -14.4,17.4 -18.1,28.5 -3.6,11.1 -4.5,22.1 -2.6,32.9 1.8,10.1 5.6,18.79762 11.5,25.99762 5.9,7.3 13,12.5 21.3,15.6 8.3,3.1 17.5,3.8 27.4,2.1 8.5,-1.5 16,-4.4 22.6,-8.7 6.6,-4.3 12,-9.8 16.2,-16.3 3.5,-5.3 6.1,-10.69762 7.9,-16.19762 z m -31.8,-41.6 c 3.3,-4.1 7.5,-6.6 12.5,-7.5 3.8,-0.7 7.3,-0.3 10.5,1 3.2,1.3 5.7,3.4 7.7,6.2 1.8,2.6 3,5.5 3.6,8.6 l -40.9,7.2 0.1,-0.5 c 1,-5.9 3.2,-10.9 6.5,-15 z"
     fill="#ffffff"
     id="path20"
     style="stroke-width:4.7619" />
  <path
     d="m 930.4,191.75 c -1.7,-9.8 -5.5,-18.2 -11.3,-25 -5.8,-6.9 -12.8,-11.8 -20.9,-14.6 -8.1,-2.9 -16.7,-3.5 -25.8,-1.9 -11.4,2 -21.3,7 -29.7,14.9 -8.4,7.9 -14.4,17.4 -18.1,28.5 -3.6,11.1 -4.5,22.1 -2.6,32.9 1.8,10.1 5.6,18.8 11.5,26 5.9,7.3 13,12.5 21.3,15.6 8.3,3.1 17.5,3.8 27.4,2.1 8.5,-1.5 16,-4.4 22.6,-8.7 6.6,-4.3 12,-9.8 16.2,-16.3 3.5,-5.3 6.1,-10.7 7.9,-16.2 h -35 c -1.4,2.4 -3.4,4.5 -5.8,6.7 -2.6,2.2 -5.8,3.6 -9.8,4.3 -3.7,0.6 -7.2,0.3 -10.5,-1 -3.3,-1.3 -6,-3.5 -8,-6.7 -1.3,-2.1 -2.4,-4.6 -3.2,-7.5 l 73.9,-13 c 0.4,-2.9 0.6,-6.2 0.7,-9.7 0.1,-3.6 -0.2,-7 -0.8,-10.4 z m -74.8,11.1 0.1,-0.5 c 1,-5.8 3.2,-10.9 6.5,-15 3.3,-4.1 7.5,-6.6 12.5,-7.5 3.8,-0.7 7.3,-0.3 10.5,1 3.2,1.3 5.7,3.4 7.7,6.2 1.8,2.6 3,5.5 3.6,8.6 z"
     fill="#ffffff"
     id="path22"
     style="stroke-width:4.7619" />
  <defs
     id="defs41">
    <filter
       id="filter0_d_543_6953"
       x="0"
       y="0"
       width="290"
       height="184.39101"
       filterUnits="userSpaceOnUse"
       color-interpolation-filters="sRGB">
      <feFlood
         flood-opacity="0"
         result="BackgroundImageFix"
         id="feFlood24" />
      <feColorMatrix
         in="SourceAlpha"
         type="matrix"
         values="0 0 0 0 0 0 0 0 0 0 0 0 0 0 0 0 0 0 127 0"
         result="hardAlpha"
         id="feColorMatrix26" />
      <feOffset
         dy="10"
         id="feOffset28" />
      <feGaussianBlur
         stdDeviation="20"
         id="feGaussianBlur30" />
      <feComposite
         in2="hardAlpha"
         operator="out"
         id="feComposite32" />
      <feColorMatrix
         type="matrix"
         values="0 0 0 0 0 0 0 0 0 0 0 0 0 0 0 0 0 0 0.05 0"
         id="feColorMatrix34" />
      <feBlend
         mode="normal"
         in2="BackgroundImageFix"
         result="effect1_dropShadow_543_6953"
         id="feBlend36" />
      <feBlend
         mode="normal"
         in="SourceGraphic"
         in2="effect1_dropShadow_543_6953"
         result="shape"
         id="feBlend38" />
    </filter>
  </defs>
</svg>
