<svg xmlns="http://www.w3.org/2000/svg" viewBox="0 -25 82 82"><path d="M8.4 16.8C12.2 12.2 16.3 10.2 21 10.2C27 10.2 31.1 12.7 35 19C31.1 25.3 27 27.8 21 27.8C16.3 27.8 12.2 25.8 8.4 21.2C7.6 20.2 7.6 17.8 8.4 16.8Z" fill="none" stroke="#0A0A0A" stroke-linecap="round" stroke-linejoin="round" stroke-width="3"/><path d="M73.6 16.8C69.8 12.2 65.7 10.2 61 10.2C55 10.2 50.9 12.7 47 19C50.9 25.3 55 27.8 61 27.8C65.7 27.8 69.8 25.8 73.6 21.2C74.4 20.2 74.4 17.8 73.6 16.8Z" fill="none" stroke="#0A0A0A" stroke-linecap="round" stroke-linejoin="round" stroke-width="3"/><path d="M9 3.8C16 1.6 24 1.4 32 3.5M50 3.5C58 1.4 66 1.6 73 3.8" fill="none" stroke="#0A0A0A" stroke-linecap="round" stroke-width="4"/><circle cx="21" cy="19" fill="#0A0A0A" r="3.8"/><circle cx="61" cy="19" fill="#B54E5E" r="3.8"/></svg>