<svg xmlns="http://www.w3.org/2000/svg" width="1200" height="630" viewBox="0 0 1200 630">
  <rect width="1200" height="630" fill="#ffffff"/>
  <rect x="48" y="48" width="1104" height="534" rx="24" fill="#f7f7f4" stroke="#0a0a0a" stroke-opacity="0.15" stroke-width="2"/>
  <rect x="88" y="88" width="88" height="88" rx="22" fill="#0a0a0a"/>
  <path d="M108 132c18-28 48-28 68 0-20 28-50 28-68 0Z" fill="#ffffff"/>
  <circle cx="142" cy="132" r="13" fill="#0a0a0a"/>
  <text x="204" y="123" fill="#0a0a0a" font-family="Inter, Arial, sans-serif" font-size="54" font-weight="600">Machtblick</text>
  <text x="204" y="166" fill="#0a0a0a" fill-opacity="0.7" font-family="Inter, Arial, sans-serif" font-size="24">Bundestag transparent</text>
  <text x="88" y="280" fill="#0a0a0a" font-family="Inter, Arial, sans-serif" font-size="66" font-weight="600">Abstimmungen, Abgeordnete, Fraktionen</text>
  <text x="90" y="333" fill="#0a0a0a" fill-opacity="0.7" font-family="Inter, Arial, sans-serif" font-size="28">Offene Daten zum Deutschen Bundestag, verständlich und verlinkbar.</text>
  <g transform="translate(88 405)">
    <rect width="222" height="86" rx="16" fill="#ffffff" stroke="#0a0a0a" stroke-opacity="0.15" stroke-width="2"/>
    <circle cx="44" cy="43" r="18" fill="#1769aa"/>
    <text x="78" y="52" fill="#0a0a0a" font-family="Inter, Arial, sans-serif" font-size="24" font-weight="600">Abstimmungen</text>
  </g>
  <g transform="translate(334 405)">
    <rect width="222" height="86" rx="16" fill="#ffffff" stroke="#0a0a0a" stroke-opacity="0.15" stroke-width="2"/>
    <circle cx="44" cy="43" r="18" fill="#d64550"/>
    <text x="78" y="52" fill="#0a0a0a" font-family="Inter, Arial, sans-serif" font-size="24" font-weight="600">Mitglieder</text>
  </g>
  <g transform="translate(580 405)">
    <rect width="222" height="86" rx="16" fill="#ffffff" stroke="#0a0a0a" stroke-opacity="0.15" stroke-width="2"/>
    <circle cx="44" cy="43" r="18" fill="#3b8c4a"/>
    <text x="78" y="52" fill="#0a0a0a" font-family="Inter, Arial, sans-serif" font-size="24" font-weight="600">Fraktionen</text>
  </g>
  <g transform="translate(858 366)" fill="none" stroke-width="12" stroke-linecap="round">
    <path d="M0 120a150 150 0 0 1 300 0" stroke="#0a0a0a" stroke-opacity="0.15"/>
    <path d="M38 120a112 112 0 0 1 224 0" stroke="#1769aa"/>
    <path d="M76 120a74 74 0 0 1 148 0" stroke="#d64550"/>
    <path d="M114 120a36 36 0 0 1 72 0" stroke="#3b8c4a"/>
  </g>
  <text x="858" y="526" fill="#0a0a0a" fill-opacity="0.7" font-family="Inter, Arial, sans-serif" font-size="22">machtblick.de</text>
</svg>
